<?xml version="1.0" encoding="utf-8"?>
<!-- Generator: Adobe Illustrator 16.0.0, SVG Export Plug-In . SVG Version: 6.00 Build 0)  -->
<!DOCTYPE svg PUBLIC "-//W3C//DTD SVG 1.1//EN" "http://www.w3.org/Graphics/SVG/1.1/DTD/svg11.dtd">
<svg version="1.1" id="Layer_1" xmlns="http://www.w3.org/2000/svg" xmlns:xlink="http://www.w3.org/1999/xlink" x="0px" y="0px"
	 width="718.739px" height="177.31px" viewBox="0 0 718.739 177.31" enable-background="new 0 0 718.739 177.31"
	 xml:space="preserve">
<path fill-rule="evenodd" clip-rule="evenodd" d="M118.19,109.6c-3.23-6.359-39.2-77.01-39.45-77.52c-0.291-0.59-0.97-0.57-1.25,0
	c-0.17,0.35-34.42,68.26-38.891,77.13c-0.31,0.61,0.021,0.95,0.51,0.95h26.18c0.42,0,0.71-0.35,0.85-0.49l10.31-17.72
	c0.4-0.57,0.87-0.98,1.37-0.97c0.48,0,0.98,0.419,1.34,0.97l10.32,17.72c0.15,0.141,0.43,0.49,0.82,0.49h27.58
	C118.14,110.16,118.35,109.899,118.19,109.6z M154.85,2.77v149.241c0,1.52-1.24,2.759-2.77,2.759l-59.91-0.009
	c-0.13,0-0.35,0.17-0.42,0.279c-0.07,0.109-12.28,21.08-12.28,21.08c-0.44,0.67-1.06,1.181-1.65,1.189
	c-0.61,0.011-1.18-0.489-1.67-1.189c0,0-12.21-20.971-12.26-21.07c-0.07-0.13-0.27-0.289-0.37-0.289L2.76,154.77
	c-1.53,0-2.76-1.239-2.76-2.759V2.77C0,1.24,1.23,0,2.76,0h149.32C153.61,0,154.85,1.24,154.85,2.77z"/>
<path fill-rule="evenodd" clip-rule="evenodd" d="M718.64,106.53c-2.11,2.23-4.6,4.02-7.47,5.36c-2.88,1.34-6.23,2.009-10.061,2.009
	s-7.25-0.569-10.25-1.719c-3-1.15-5.529-2.781-7.569-4.891c-2.04-2.1-3.61-4.62-4.69-7.56c-1.09-2.931-1.63-6.19-1.63-9.771
	c0-3.25,0.59-6.33,1.77-9.24c1.181-2.9,2.831-5.44,4.931-7.61c2.109-2.17,4.65-3.89,7.62-5.17c2.97-1.28,6.239-1.91,9.819-1.91
	c3.641,0,6.961,0.65,9.961,1.96s5.56,3.08,7.669,5.31l-7.189,7.28c-1.28-1.47-2.78-2.62-4.5-3.45c-1.729-0.83-3.71-1.24-5.94-1.24
	c-2.17,0-4.06,0.4-5.649,1.2c-1.601,0.79-2.931,1.83-3.979,3.11c-1.051,1.27-1.841,2.77-2.351,4.5c-0.51,1.72-0.76,3.48-0.76,5.26
	c0,1.73,0.25,3.42,0.76,5.08s1.3,3.16,2.351,4.5c1.049,1.34,2.379,2.43,3.979,3.25c1.59,0.83,3.479,1.25,5.649,1.25
	c2.23,0,4.28-0.43,6.13-1.29c1.851-0.87,3.421-2.03,4.69-3.5L718.64,106.53z M656.18,67.56h11.301v44.9H656.18V67.56z M655.8,48.6
	h12.07v11.87H655.8V48.6z M621.02,76.75h-7.66v-9.19h7.66V53h11.311v14.56h12.07v9.19h-12.07v19.63c0,2.551,0.43,4.511,1.29,5.89
	c0.86,1.371,2.25,2.061,4.17,2.061c1.78,0,3.21-0.26,4.26-0.77c1.05-0.511,2.06-1.12,3.021-1.82l4.789,6.99
	c-2.239,1.85-4.439,3.18-6.609,3.979c-2.17,0.79-4.6,1.189-7.28,1.189c-2.75,0-5.08-0.399-7-1.189c-1.91-0.8-3.46-1.93-4.64-3.41
	c-1.19-1.46-2.03-3.229-2.54-5.31c-0.511-2.07-0.771-4.36-0.771-6.85V76.75z M595.439,92.17c-1.149-0.07-2.26-0.13-3.35-0.2
	c-0.891-0.06-1.84-0.109-2.83-0.14s-1.83-0.05-2.529-0.05c-3.641,0-6.201,0.72-7.671,2.16c-1.47,1.43-2.2,3.079-2.2,4.93
	c0,1.91,0.681,3.41,2.061,4.5c1.37,1.09,3.4,1.63,6.08,1.63c1.34,0,2.64-0.23,3.88-0.67c1.25-0.45,2.351-1.061,3.31-1.819
	c0.95-0.771,1.74-1.661,2.34-2.681c0.61-1.02,0.91-2.11,0.91-3.26V92.17z M595.439,108.25c-1.209,1.47-3.06,2.78-5.55,3.931
	c-2.489,1.149-5.27,1.719-8.34,1.719c-1.851,0-3.69-0.289-5.51-0.859c-1.82-0.58-3.48-1.45-4.98-2.63s-2.71-2.7-3.64-4.55
	c-0.92-1.85-1.391-4.021-1.391-6.511c0-2.55,0.48-4.839,1.44-6.85c0.96-2.01,2.3-3.7,4.02-5.07c1.73-1.38,3.801-2.41,6.23-3.12
	c2.431-0.7,5.11-1.05,8.05-1.05c0.891,0,1.881,0.02,2.97,0.05c1.081,0.03,2.141,0.08,3.161,0.14c1.149,0.07,2.33,0.13,3.539,0.19
	v-1.05c0-2.23-0.89-3.99-2.68-5.27c-1.79-1.27-4.12-1.91-6.99-1.91c-3.199,0-5.75,0.42-7.67,1.24c-1.91,0.83-3.61,1.73-5.07,2.69
	l-5.18-7.66c0.9-0.64,1.92-1.3,3.07-1.97s2.49-1.27,4.02-1.82c1.541-0.54,3.311-0.99,5.32-1.34c2.01-0.35,4.36-0.52,7.04-0.52
	c2.87,0,5.479,0.4,7.81,1.19c2.33,0.8,4.32,1.92,5.99,3.35c1.66,1.44,2.93,3.16,3.83,5.18c0.891,2.01,1.34,4.19,1.34,6.55v30.16
	H595.73L595.439,108.25z M487.29,67.56h10.819l0.291,5.07c0.569-0.64,1.229-1.32,1.959-2.06c0.74-0.73,1.63-1.38,2.681-1.96
	c1.06-0.57,2.27-1.05,3.649-1.43c1.37-0.39,2.95-0.58,4.74-0.58c5.94,0,10.44,2.17,13.51,6.51c2.291-2.36,4.641-4.04,7.041-5.02
	c2.39-0.99,5.18-1.49,8.379-1.49c5.681,0,10.041,1.68,13.08,5.03c3.03,3.35,4.55,7.87,4.55,13.55v27.28h-11.31V85.27
	c0-2.87-0.72-5.09-2.15-6.65c-1.439-1.57-3.399-2.35-5.89-2.35c-1.54,0-2.94,0.3-4.22,0.91c-1.28,0.61-2.38,1.45-3.311,2.54
	c-0.92,1.08-1.62,2.34-2.1,3.78c-0.48,1.44-0.72,2.99-0.72,4.65v24.31h-11.31V85.27c0-2.87-0.711-5.09-2.15-6.65
	c-1.44-1.57-3.4-2.35-5.891-2.35c-1.539,0-2.939,0.3-4.22,0.91s-2.38,1.45-3.3,2.54c-0.931,1.08-1.63,2.34-2.11,3.78
	c-0.479,1.44-0.72,2.99-0.72,4.65v24.31h-11.3V67.56z M454.14,104.23c2.17,0,4.06-0.431,5.65-1.29c1.6-0.86,2.92-2,3.979-3.4
	c1.051-1.399,1.83-2.94,2.351-4.6c0.51-1.66,0.76-3.32,0.76-4.98c0-1.59-0.25-3.24-0.76-4.93c-0.521-1.69-1.3-3.22-2.351-4.59
	c-1.06-1.38-2.38-2.49-3.979-3.35c-1.591-0.87-3.48-1.3-5.65-1.3s-4.06,0.43-5.65,1.3c-1.6,0.86-2.919,1.97-3.979,3.35
	c-1.05,1.37-1.83,2.9-2.34,4.59c-0.52,1.69-0.77,3.34-0.77,4.93c0,1.66,0.25,3.32,0.77,4.98c0.51,1.659,1.29,3.2,2.34,4.6
	c1.061,1.4,2.38,2.54,3.979,3.4C450.08,103.8,451.97,104.23,454.14,104.23z M430,89.96c0-3.25,0.59-6.33,1.77-9.24
	c1.18-2.9,2.83-5.44,4.93-7.61c2.11-2.17,4.65-3.89,7.621-5.17c2.97-1.28,6.239-1.91,9.819-1.91s6.85,0.63,9.82,1.91
	c2.97,1.28,5.51,3,7.62,5.17c2.1,2.17,3.75,4.71,4.93,7.61c1.18,2.91,1.771,5.99,1.771,9.24c0,3.26-0.591,6.34-1.771,9.24
	c-1.18,2.91-2.83,5.46-4.93,7.66c-2.11,2.21-4.65,3.95-7.62,5.22c-2.971,1.28-6.24,1.92-9.82,1.92s-6.85-0.64-9.819-1.92
	c-2.971-1.27-5.511-3.01-7.621-5.22c-2.1-2.2-3.75-4.75-4.93-7.66C430.59,96.3,430,93.22,430,89.96z M390.91,99.63
	c1.41,1.41,3.18,2.58,5.32,3.5c2.14,0.931,4.579,1.39,7.329,1.39c2.421,0,4.37-0.319,5.841-0.959c1.47-0.641,2.199-1.69,2.199-3.161
	c0-0.639-0.119-1.229-0.38-1.77c-0.25-0.54-0.8-1.069-1.63-1.58c-0.83-0.51-1.98-1.02-3.45-1.53c-1.47-0.509-3.44-1.05-5.94-1.629
	c-1.529-0.38-3.129-0.891-4.779-1.53c-1.67-0.641-3.21-1.521-4.65-2.641c-1.439-1.11-2.619-2.45-3.55-4.02
	c-0.92-1.56-1.38-3.43-1.38-5.6c0-2.23,0.54-4.23,1.62-5.98c1.09-1.76,2.51-3.23,4.271-4.41c1.75-1.18,3.729-2.09,5.939-2.73
	c2.2-0.63,4.42-0.95,6.65-0.95c3.96,0,7.33,0.41,10.109,1.24c2.78,0.83,5.29,2.08,7.52,3.74l-5.84,7.94
	c-1.22-0.89-2.81-1.7-4.789-2.44c-1.98-0.73-4.311-1.1-7-1.1c-2.681,0-4.551,0.4-5.601,1.2c-1.05,0.8-1.58,1.77-1.58,2.92
	c0,1.4,0.88,2.5,2.63,3.3c1.761,0.8,4.49,1.64,8.2,2.54c2.29,0.51,4.351,1.15,6.17,1.91c1.82,0.77,3.391,1.73,4.7,2.88
	c1.311,1.14,2.311,2.5,3.02,4.06c0.7,1.57,1.051,3.44,1.051,5.61s-0.51,4.13-1.53,5.88c-1.03,1.76-2.41,3.25-4.17,4.46
	c-1.761,1.21-3.8,2.15-6.13,2.82s-4.811,1.01-7.43,1.01c-4.211,0-8.011-0.59-11.4-1.77c-3.38-1.19-6.1-2.931-8.141-5.22
	L390.91,99.63z M366,85.27c0-1.15-0.22-2.3-0.67-3.44c-0.44-1.15-1.1-2.19-1.96-3.12c-0.86-0.92-1.96-1.69-3.311-2.29
	c-1.34-0.61-2.87-0.91-4.59-0.91c-1.86,0-3.5,0.3-4.94,0.91c-1.43,0.6-2.63,1.37-3.59,2.29c-0.96,0.93-1.69,1.97-2.2,3.12
	c-0.52,1.14-0.77,2.29-0.77,3.44H366z M377.02,105.95l-1.58,1.58c-0.859,0.869-2.109,1.77-3.74,2.73
	c-1.619,0.959-3.699,1.819-6.219,2.589c-2.531,0.761-5.541,1.15-9.061,1.15c-3.57,0-6.83-0.609-9.77-1.819
	c-2.94-1.211-5.44-2.891-7.52-5.031c-2.07-2.139-3.67-4.709-4.79-7.709s-1.67-6.32-1.67-9.96c0-3.311,0.55-6.391,1.67-9.23
	s2.68-5.32,4.7-7.43c2.01-2.1,4.4-3.76,7.18-4.97c2.78-1.22,5.86-1.82,9.25-1.82c4.08,0,7.55,0.75,10.39,2.25s5.13,3.46,6.851,5.89
	c1.72,2.42,2.97,5.17,3.739,8.23c0.761,3.06,1.15,6.19,1.15,9.38v1.63h-33.53c0,1.66,0.36,3.16,1.1,4.5
	c0.73,1.34,1.69,2.489,2.87,3.45c1.18,0.96,2.52,1.689,4.03,2.2c1.49,0.51,2.98,0.77,4.45,0.77c2.17,0,4.07-0.21,5.7-0.63
	c1.63-0.41,3.02-0.89,4.17-1.431c1.15-0.539,2.091-1.12,2.82-1.729c0.739-0.6,1.3-1.1,1.68-1.479L377.02,105.95z M218.35,86.33
	l9.55-21.83l9.45,21.83H218.35z M228.44,39.76c-0.24-0.51-0.78-0.59-1.06,0c-0.18,0.4-32.96,72.7-32.96,72.7h13.11l6.87-16.18h27.04
	l7.01,16.18h13.23C261.68,112.46,228.61,40.13,228.44,39.76z M257.68,67.56h12.45l9.34,29.88l9.49-29.88h8.86l10.2,29.88l8.91-29.88
	h11.5l-15.24,44.9h-9.85l-9.89-27.19l-8.88,27.19h-10.06L257.68,67.56z"/>
</svg>
